# xmcd
#
# Track frame offsets: 
#        150
#        27147
#        43245
#        64292
#        106568
#        150481
#        185384
#        214217
#        242413
#        273463
#        300794
#
# Disc length: 4236 seconds
#
# Revision: 0
# Processed by: cddbd v1.5.1PL0 Copyright (c) Steve Scherf et al.
# Submitted via: ExactAudioCopy v0.95a5
#
DISCID=86108a0b
DTITLE=Blues Traveler - 2000-10-21 Bay Center at the Rusty Rudder, Reh
DTITLE=oboth Beach, DE
DYEAR=2000
DGENRE=Blues
TTITLE0=Believe Me
TTITLE1=Optimistic Thought
TTITLE2=Save His Soul
TTITLE3=Rage 
TTITLE4=Mulling It Over> 
TTITLE5=But Anyway 
TTITLE6=All Hands 
TTITLE7=Hook 
TTITLE8=The Path> 
TTITLE9=Bagheera 
TTITLE10=The Devil Went Down To Georgia
EXTD=
EXTT0=
EXTT1=
EXTT2=
EXTT3=
EXTT4=
EXTT5=
EXTT6=
EXTT7=
EXTT8=
EXTT9=
EXTT10=
PLAYORDER=
